{
  "accessors": [
    {
      "bufferView": 2,
      "componentType": 5126,
      "count": 2489,
      "max": [
        0.44852307438850403,
        0.3828141689300537,
        0.007716119289398193
      ],
      "min": [
        -0.4667190909385681,
        -1.1787155866622925,
        -1.0963302850723267
      ],
      "type": "VEC3"
    },
    {
      "bufferView": 2,
      "byteOffset": 29868,
      "componentType": 5126,
      "count": 2489,
      "max": [
        0.9959861636161804,
        0.9998994469642639,
        0.9993231296539307
      ],
      "min": [
        -0.997238039970398,
        -0.9661486148834229,
        -0.997994065284729
      ],
      "type": "VEC3"
    },
    {
      "bufferView": 1,
      "componentType": 5126,
      "count": 2489,
      "max": [
        1.000000238418579,
        1.0000001192092896
      ],
      "min": [
        0.0,
        0.0
      ],
      "type": "VEC2"
    },
    {
      "bufferView": 0,
      "componentType": 5125,
      "count": 14784,
      "type": "SCALAR"
    },
    {
      "bufferView": 2,
      "byteOffset": 59736,
      "componentType": 5126,
      "count": 2353,
      "max": [
        -0.06490297615528107,
        0.33067822456359863,
        -0.050325244665145874
      ],
      "min": [
        -0.34628796577453613,
        -0.13260355591773987,
        -0.659348726272583
      ],
      "type": "VEC3"
    },
    {
      "bufferView": 2,
      "byteOffset": 87972,
      "componentType": 5126,
      "count": 2353,
      "max": [
        0.9985523819923401,
        0.9980992078781128,
        0.9991959929466248
      ],
      "min": [
        -0.9997451901435852,
        -0.999133288860321,
        -0.9989838004112244
      ],
      "type": "VEC3"
    },
    {
      "bufferView": 1,
      "byteOffset": 19912,
      "componentType": 5126,
      "count": 2353,
      "max": [
        1.0000001192092896,
        1.0
      ],
      "min": [
        0.0,
        0.0
      ],
      "type": "VEC2"
    },
    {
      "bufferView": 0,
      "byteOffset": 59136,
      "componentType": 5125,
      "count": 12096,
      "type": "SCALAR"
    },
    {
      "bufferView": 2,
      "byteOffset": 116208,
      "componentType": 5126,
      "count": 204,
      "max": [
        0.019045354798436165,
        0.41063112020492554,
        0.023081831634044647
      ],
      "min": [
        -0.31640875339508057,
        -0.03122013621032238,
        -0.7355844378471375
      ],
      "type": "VEC3"
    },
    {
      "bufferView": 2,
      "byteOffset": 118656,
      "componentType": 5126,
      "count": 204,
      "max": [
        0.999136209487915,
        0.9815072417259216,
        0.9949827790260315
      ],
      "min": [
        -0.997723400592804,
        -0.9353723526000977,
        -0.9971358180046082
      ],
      "type": "VEC3"
    },
    {
      "bufferView": 1,
      "byteOffset": 38736,
      "componentType": 5126,
      "count": 204,
      "max": [
        0.8066853284835815,
        1.0
      ],
      "min": [
        0.125,
        0.0
      ],
      "type": "VEC2"
    },
    {
      "bufferView": 0,
      "byteOffset": 107520,
      "componentType": 5125,
      "count": 528,
      "type": "SCALAR"
    }
  ],
  "asset": {
    "extras": {
      "author": "Lena Pauly (https://sketchfab.com/LenaPauly)",
      "license": "CC-BY-4.0 (http://creativecommons.org/licenses/by/4.0/)",
      "source": "https://sketchfab.com/3d-models/catastroffee-cat-paws-vr-hands-ec409d777de446d2b3df5948c619f0f0",
      "title": "Catastroffee - Cat Paws - VR Hands"
    },
    "generator": "Sketchfab-15.29.0",
    "version": "2.0"
  },
  "bufferViews": [
    {
      "buffer": 0,
      "byteLength": 109632,
      "name": "floatBufferViews",
      "target": 34963
    },
    {
      "buffer": 0,
      "byteLength": 40368,
      "byteOffset": 109632,
      "byteStride": 8,
      "name": "floatBufferViews",
      "target": 34962
    },
    {
      "buffer": 0,
      "byteLength": 121104,
      "byteOffset": 150000,
      "byteStride": 12,
      "name": "floatBufferViews",
      "target": 34962
    }
  ],
  "buffers": [
    {
      "byteLength": 271104,
      "uri": "scene.bin"
    }
  ],
  "materials": [
    {
      "doubleSided": true,
      "name": "Cat_Paw",
      "pbrMetallicRoughness": {
        "baseColorFactor": [
          1.0,
          0.364981,
          0.164915,
          1.0
        ],
        "metallicFactor": 0.0,
        "roughnessFactor": 0.8914296705006935
      }
    },
    {
      "doubleSided": true,
      "name": "Cat_Paw_Beans",
      "pbrMetallicRoughness": {
        "baseColorFactor": [
          0.969922,
          0.585897,
          0.808528,
          1.0
        ],
        "metallicFactor": 0.0,
        "roughnessFactor": 0.8471391120308496
      }
    },
    {
      "doubleSided": true,
      "name": "Cat_Paw_Claws",
      "pbrMetallicRoughness": {
        "baseColorFactor": [
          0.759458,
          0.8,
          0.635409,
          1.0
        ],
        "metallicFactor": 0.0,
        "roughnessFactor": 0.8428873110860737
      }
    }
  ],
  "meshes": [
    {
      "name": "1",
      "primitives": [
        {
          "attributes": {
            "NORMAL": 1,
            "POSITION": 0,
            "TEXCOORD_0": 2
          },
          "indices": 3,
          "material": 0,
          "mode": 4
        }
      ]
    },
    {
      "name": "2",
      "primitives": [
        {
          "attributes": {
            "NORMAL": 5,
            "POSITION": 4,
            "TEXCOORD_0": 6
          },
          "indices": 7,
          "material": 1,
          "mode": 4
        }
      ]
    },
    {
      "name": "0",
      "primitives": [
        {
          "attributes": {
            "NORMAL": 9,
            "POSITION": 8,
            "TEXCOORD_0": 10
          },
          "indices": 11,
          "material": 2,
          "mode": 4
        }
      ]
    }
  ],
  "nodes": [
    {
      "children": [
        1
      ],
      "matrix": [
        0.3071393668651581,
        0.0,
        0.0,
        0.0,
        0.0,
        6.819863937249828e-17,
        -0.3071393668651581,
        0.0,
        0.0,
        0.3071393668651581,
        6.819863937249828e-17,
        0.0,
        0.0,
        0.0,
        0.0,
        1.0
      ],
      "name": "Sketchfab_model"
    },
    {
      "children": [
        2
      ],
      "matrix": [
        0.009999999776482582,
        0.0,
        0.0,
        0.0,
        0.0,
        0.0,
        0.009999999776482582,
        0.0,
        0.0,
        -0.009999999776482582,
        0.0,
        0.0,
        0.0,
        0.0,
        0.0,
        1.0
      ],
      "name": "6425466c4b054c53b07c9f285f0edadc.fbx"
    },
    {
      "children": [
        3
      ],
      "name": "RootNode"
    },
    {
      "children": [
        4,
        5,
        6
      ],
      "matrix": [
        93.4469380818832,
        5.309714980195057e-07,
        35.60435033982064,
        0.0,
        8.930461800689685,
        96.80324394242032,
        -23.43883133286907,
        0.0,
        -34.46616623802405,
        25.082503109224607,
        90.45966738070967,
        0.0,
        -10.563838958740234,
        109.32514953613281,
        39.45940399169922,
        1.0
      ],
      "name": "Cube.005"
    },
    {
      "mesh": 0,
      "name": "1"
    },
    {
      "mesh": 1,
      "name": "2"
    },
    {
      "mesh": 2,
      "name": "0"
    }
  ],
  "scene": 0,
  "scenes": [
    {
      "name": "Sketchfab_Scene",
      "nodes": [
        0
      ]
    }
  ]
}
